<?xml version="1.0" standalone="no"?>
<!DOCTYPE svg PUBLIC "-//W3C//DTD SVG 20010904//EN"
 "http://www.w3.org/TR/2001/REC-SVG-20010904/DTD/svg10.dtd">
<svg version="1.0" xmlns="http://www.w3.org/2000/svg"
 width="200.000000pt" height="200.000000pt" viewBox="0 0 200.000000 200.000000"
 preserveAspectRatio="xMidYMid meet">
<metadata>
Created by potrace 1.11, written by Peter Selinger 2001-2013
</metadata>
<g transform="translate(0.000000,200.000000) scale(0.100000,-0.100000)"
fill="#000000" stroke="none">
<path d="M866 1988 c-477 -64 -847 -474 -860 -952 -4 -165 24 -313 86 -446
131 -284 364 -478 668 -557 80 -21 118 -25 240 -25 125 0 159 3 245 26 360 96
628 365 722 725 32 124 36 312 9 441 -41 197 -134 366 -281 514 -126 126 -318
228 -494 262 -89 18 -252 24 -335 12z"/>
</g>
</svg>
